<svg width="38" height="40" viewBox="0 0 38 40" fill="none" xmlns="http://www.w3.org/2000/svg">
    <path d="M34.02 7.7L22.14 0.84C20.2 -0.28 17.8 -0.28 15.84 0.84L3.98 7.7C2.04 8.82 0.839996 10.9 0.839996 13.16V26.84C0.839996 29.08 2.04 31.16 3.98 32.3L15.86 39.16C17.8 40.28 20.2 40.28 22.16 39.16L34.04 32.3C35.98 31.18 37.18 29.1 37.18 26.84V13.16C37.16 10.9 35.96 8.84 34.02 7.7ZM19 10.68C21.58 10.68 23.66 12.76 23.66 15.34C23.66 17.92 21.58 20 19 20C16.42 20 14.34 17.92 14.34 15.34C14.34 12.78 16.42 10.68 19 10.68ZM24.36 29.32H13.64C12.02 29.32 11.08 27.52 11.98 26.18C13.34 24.16 15.98 22.8 19 22.8C22.02 22.8 24.66 24.16 26.02 26.18C26.92 27.5 25.96 29.32 24.36 29.32Z"
          fill="#3D195B"/>
</svg>
