<svg width="149" height="63" viewBox="0 0 149 63" fill="none" xmlns="http://www.w3.org/2000/svg">
<path d="M114.709 42.0253L115.119 40.281H118.44V53.4148C118.44 55.9797 117.725 57.7751 116.039 59.1088C114.762 60.0836 113.023 60.8012 110.929 60.8012C108.067 60.8012 106.023 59.8264 104.388 58.2362L106.484 55.3118C107.506 56.2866 108.885 57.1591 110.673 57.1591C113.484 57.1591 114.71 55.7736 114.71 53.7217V52.7469C113.587 53.927 112.258 54.3881 110.776 54.3881C106.892 54.3881 103.826 51.2072 103.826 47.1552C103.826 43.1529 106.995 40.0757 110.878 40.0757C112.462 40.0764 113.892 40.8452 114.709 42.0253ZM111.338 43.5139C109.346 43.5139 107.76 45.0521 107.76 47.1552C107.76 49.156 109.346 50.7461 111.338 50.7461C113.33 50.7461 114.914 49.156 114.914 47.1552C114.914 45.0521 113.33 43.5139 111.338 43.5139ZM89.722 20.6846C88.1374 20.6846 86.8082 21.6082 86.5025 23.096H92.8382C92.5325 21.6594 91.2557 20.6846 89.722 20.6846ZM89.9266 31.8168C85.6858 31.8168 82.5681 28.8931 82.5681 24.635C82.5681 20.7869 85.3786 17.3502 89.8247 17.3502C93.1461 17.3502 96.5702 19.8632 96.5702 24.5319C96.5702 24.8907 96.5702 25.3533 96.4683 25.8656H86.4523C86.8089 27.4045 88.1898 28.432 89.8756 28.432C91.4086 28.432 92.5842 27.8671 93.5552 26.8404L95.8547 29.2C94.3734 30.8931 92.2268 31.8168 89.9266 31.8168ZM132.391 20.6846C130.807 20.6846 129.479 21.6082 129.171 23.096H135.507C135.202 21.6594 133.924 20.6846 132.391 20.6846ZM132.596 31.8168C128.355 31.8168 125.237 28.8931 125.237 24.635C125.237 20.7869 128.048 17.3502 132.494 17.3502C135.815 17.3502 139.239 19.8632 139.239 24.5319C139.239 24.8907 139.239 25.3533 139.138 25.8656H129.121C129.48 27.4045 130.859 28.432 132.545 28.432C134.077 28.432 135.253 27.8671 136.224 26.8404L138.523 29.2C137.041 30.8931 134.895 31.8168 132.596 31.8168ZM142.151 43.2566C140.567 43.2566 139.239 44.1803 138.932 45.6681H145.269C144.962 44.2315 143.684 43.2566 142.151 43.2566ZM142.356 54.3881C138.113 54.3881 134.997 51.4644 134.997 47.2063C134.997 43.3582 137.808 39.9215 142.254 39.9215C145.575 39.9215 149 42.4345 149 47.1033C149 47.4621 149 47.9247 148.896 48.4369H138.881C139.239 49.9759 140.619 51.0018 142.305 51.0018C143.838 51.0018 145.013 50.4377 145.984 49.4117L148.283 51.7713C146.801 53.4652 144.656 54.3881 142.356 54.3881ZM79.5015 43.2566C77.9168 43.2566 76.5891 44.1803 76.2819 45.6681H82.6184C82.3126 44.2315 81.0352 43.2566 79.5015 43.2566ZM79.706 54.3881C75.4652 54.3881 72.3476 51.4644 72.3476 47.2063C72.3476 43.3582 75.1573 39.9215 79.6026 39.9215C82.9248 39.9215 86.3489 42.4345 86.3489 47.1033C86.3489 47.4621 86.3489 47.9247 86.247 48.4369H76.2302C76.5884 49.9759 77.9692 51.0018 79.655 51.0018C81.1873 51.0018 82.3621 50.4377 83.3346 49.4117L85.6334 51.7713C84.1521 53.4652 82.0062 54.3881 79.706 54.3881ZM58.7044 54.0293V33.6634H62.7406V50.1819H71.5301V54.0293H58.7044ZM74.0851 31.458V17.709H77.3556L77.7654 19.7097C78.3776 18.4265 79.6034 17.5555 81.2397 17.5555C81.5971 17.5555 81.9545 17.6059 82.3126 17.709V21.351C81.8519 21.2487 81.445 21.1968 80.9842 21.1968C79.1448 21.1968 77.8673 22.3258 77.8673 24.5312V31.4573L74.0851 31.458ZM140.721 31.458V17.709H143.991L144.4 19.7097C145.013 18.4265 146.239 17.5555 147.875 17.5555C148.233 17.5555 148.589 17.6059 148.948 17.709V21.351C148.488 21.2487 148.08 21.1968 147.619 21.1968C145.78 21.1968 144.503 22.3258 144.503 24.5312V31.4573L140.721 31.458ZM114.301 23.3518C114.301 21.864 113.484 20.9403 112.206 20.9403C110.724 20.9403 109.958 21.864 109.958 23.4037V31.4573H106.176V23.3518C106.176 21.864 105.359 20.9403 104.081 20.9403C102.599 20.9403 101.833 21.864 101.833 23.4037V31.4573H98.0515V17.709H101.373L101.783 19.5044C101.783 19.5044 102.6 17.3502 105.155 17.3502C106.741 17.3502 108.068 18.0166 108.988 19.4028L109.091 19.5563L109.194 19.4028C110.523 17.5043 112.158 17.3502 113.18 17.3502C116.092 17.3502 118.085 19.5563 118.085 22.6853V31.458H114.303V23.3518H114.301ZM121.915 15.8631C120.587 15.8631 119.565 14.8364 119.565 13.5539C119.565 12.2203 120.587 11.1943 121.915 11.1943C123.244 11.1943 124.266 12.2196 124.266 13.5539C124.266 14.8357 123.244 15.8631 121.915 15.8631ZM119.974 17.709H123.755V31.4565H119.974V17.709ZM95.1893 43.5139C93.1446 43.5139 91.6131 45.0521 91.6131 47.1552C91.6131 49.156 93.1446 50.7461 95.1893 50.7461C97.1824 50.7461 98.7153 49.156 98.7153 47.1552C98.7153 45.0521 97.1824 43.5139 95.1893 43.5139ZM94.4229 54.3881C90.795 54.3881 87.6271 51.0537 87.6271 47.1552C87.6271 43.3078 90.795 40.0757 94.4229 40.0757C96.4676 40.0757 97.8462 40.7933 98.6644 42.0757L99.0735 40.2803H102.395V54.0286H99.0735L98.6644 52.2836C97.8462 53.5163 96.314 54.3881 94.4229 54.3881ZM126.974 54.3881C123.959 54.3881 120.281 52.7469 120.281 47.617V40.2803H124.061V47.3598C124.061 49.7194 125.136 50.7453 126.974 50.7453C128.66 50.7453 129.887 49.5659 129.887 47.3598V40.2803H133.669V47.617C133.669 52.7469 129.938 54.3881 126.974 54.3881ZM62.7406 20.7364H65.0918C67.1365 20.7364 68.6178 19.6082 68.6178 17.5555C68.6178 15.5021 67.1365 14.4257 65.0918 14.4257H62.7406V20.7364ZM58.7044 31.458V10.5783H65.2956C69.5881 10.5783 72.8076 13.1432 72.8076 17.5555C72.8076 22.0182 69.639 24.635 65.2956 24.635H62.7406V31.458H58.7044ZM44.2457 28.8256C42.8739 29.9542 41.7109 30.5832 41.7109 30.5832L41.7268 34.1605C42.7074 35.2322 43.6748 36.1199 44.3989 37.7378C45.7734 35.3149 45.5091 31.7532 44.2457 28.8256ZM43.1303 40.536C43.1303 40.536 42.8502 39.0605 41.6581 37.6834L38.9383 37.7482C38.9383 37.7482 35.2723 40.8337 33.0362 40.9062C33.0362 40.9062 34.2679 43.1504 34.8917 44.323C36.1207 44.0589 38.2854 43.109 39.1577 42.115C39.1577 42.115 39.7339 43.9347 39.6255 46.0832C40.8493 45.3895 42.5356 43.5049 43.1303 40.536ZM39.6255 34.0751L39.6204 30.5107C39.6204 30.5107 37.9949 30.0008 36.261 28.6833C32.7774 29.1984 28.559 32.6308 28.559 32.6308C28.559 32.6308 29.9836 35.2788 31.5431 38.1364C34.284 38.5118 38.3224 35.1209 39.6255 34.0751ZM48.9162 48.9176L46.6748 46.487C46.0352 53.0566 42.7498 58.6348 36.7156 62.5254L35.7931 58.9817C30.6708 62.6056 21.8797 64.9559 14.3283 60.7729C15.2666 56.0877 16.0992 51.3404 14.3124 45.6561C10.131 51.9979 6.43064 54.4828 6.43064 54.4828C3.60511 49.8365 3.85893 40.5153 4.70207 37.7715L0 39.1978C0 36.0656 2.30216 29.4209 5.6378 25.6884L2.70127 25.2276H2.69836C4.69392 21.2335 7.67274 17.7908 11.3175 15.2049L11.3226 15.202C10.2284 16.8948 10.2126 21.0727 13.4187 22.662C12.0575 20.3247 11.8936 17.4359 13.3156 15.9397C14.7376 14.4307 17.1297 14.9483 18.6573 16.1183C18.2027 14.8137 16.8706 13.1726 14.8751 13.0613H14.8722C18.6412 11.1614 22.9205 10.0923 27.4481 10.0923C28.294 10.0923 29.1371 10.1285 29.9617 10.201C31.278 10.7187 33.2101 12.5358 34.1114 13.667C34.1114 13.667 34.1748 12.3339 33.4189 10.7239C38.3219 11.8939 40.661 13.8482 41.6417 14.7904C41.8426 16.8664 42.4769 18.1114 43.3148 20.084C41.7263 18.3419 37.7351 15.5307 35.8294 14.8576C35.8294 14.8576 35.6735 16.6567 35.018 17.5212C31.2225 14.8396 29.3591 14.164 29.3591 14.164C25.1935 14.749 22.5134 16.3228 21.057 17.5601L22.3258 18.6188C19.8148 19.3746 18.184 21.4868 18.184 21.4868C18.2024 21.5257 20.428 21.8363 20.428 21.8363C20.428 21.8363 20.2006 24.3963 23.4728 26.0012C26.2772 27.3757 30.3079 25.6699 34.1035 27.1609C31.6084 24.3395 29.8824 23.0788 29.8824 23.0788C29.8824 23.0788 28.8913 22.8769 28.1934 22.8821C27.3213 22.8872 26.0208 23.0555 24.5962 22.5119C23.9143 22.2505 23.1187 21.7897 22.4949 21.4066C22.4949 21.4066 24.2473 19.6438 26.8085 19.2556C26.8085 19.2556 29.1185 19.8924 30.9476 21.2176C32.1634 20.058 33.4321 20.0943 33.4321 20.0943C33.4321 20.0943 32.174 21.2436 32.5546 22.6362C34.381 24.2307 36.3633 26.5137 36.3633 26.5137C38.3827 25.4317 42.7729 25.6802 43.6742 26.7053C42.5324 25.2531 40.8858 24.0417 39.6118 23.0063C39.4558 22.4628 38.0655 20.5679 37.8303 20.392C37.8303 20.392 39.1519 20.7906 40.3333 21.8286C40.6717 21.3549 41.306 20.8734 42.1703 20.6611C43.0583 21.3911 43.217 22.5119 43.1932 22.6983C42.794 23.1668 42.3975 23.3584 42.3975 23.3584L44.5385 25.6284L44.7526 24.0003C49.6847 30.8987 52.3734 38.8819 48.9162 48.9176ZM9.96653 5.25985C12.8105 6.53596 14.6369 8.14602 14.97 8.39191C14.8193 7.67234 14.259 4.20889 13.9365 2.05786C15.5938 3.18387 19.4395 5.79827 20.7056 6.64725C21.2209 5.09156 23.0077 0.0103766 23.0077 0.0103766C23.0077 0.0103766 26.2376 5.13044 26.79 5.9613C27.4641 5.27023 31.323 1.06382 32.3221 0C32.4886 2.42024 32.7159 5.88106 32.7741 6.40135C32.967 6.14508 34.4445 4.11572 36.9211 2.24683C35.848 4.31763 35.3352 7.17536 35.1079 9.4713C32.671 8.8061 30.0992 8.44891 27.4508 8.44891C22.3628 8.44891 17.584 9.75863 13.4528 12.0598C12.7022 9.8415 11.5261 7.08212 9.96653 5.25985Z" fill="white"/>
</svg>
