<svg width="118" height="150" viewBox="0 0 118 150" fill="none" xmlns="http://www.w3.org/2000/svg">
<path d="M94.6261 12.4191C90.4268 14.4181 86.4856 16.9178 82.8887 19.8635C83.1782 18.1119 84.5379 9.88797 85.4107 4.84764C81.6255 7.47509 72.5066 13.7591 69.5986 15.7953C68.4362 12.1125 64.1641 0.00876671 64.1641 0.00876671C64.1641 0.00876671 56.5979 12.1257 55.4312 14.1401C53.782 12.5899 44.8561 2.51797 42.5271 0C42.0402 5.7147 41.6499 14.0437 41.4613 15.2086C38.6428 11.5042 35.385 8.15457 31.759 5.23301C34.2811 10.1726 35.4478 16.9514 36.0268 22.4734C41.83 20.8042 47.8392 19.9566 53.8785 19.9555C65.3762 19.9396 76.6796 22.916 86.6739 28.591C88.3231 23.2661 90.9417 16.6799 94.6261 12.4191ZM3.62171 116.449L8.85881 110.637C10.315 126.231 18.0698 139.601 32.145 148.897L34.3776 140.472C46.4088 149.095 66.8791 154.612 84.5379 144.733C82.3053 133.593 80.4631 122.26 84.5379 108.702C94.3366 123.718 102.96 129.721 102.96 129.721C109.539 118.581 108.973 96.4011 107.035 89.8149L118 93.2043C118 85.7599 112.566 69.9558 104.806 61.0444L111.5 59.9803C106.827 50.4825 99.9008 42.2685 91.3233 36.053C93.955 40.3138 93.955 50.193 86.4722 53.9722C89.6741 48.4501 89.9811 41.575 86.7617 37.8922C83.3668 34.2094 77.8358 35.5669 74.3444 38.3783C75.4102 35.2779 78.6122 31.4024 83.0773 31.1134C74.3444 26.5591 64.1597 24.1375 53.6899 24.1375C51.6503 24.1375 49.7116 24.3302 47.8694 24.4265C44.764 25.587 40.3033 29.9485 38.1672 32.7468C38.159 30.3242 38.7241 27.934 39.8164 25.7709C28.3685 28.5779 22.8376 33.2153 20.605 35.4574C20.1181 40.397 18.6663 43.3047 16.6267 48.0517C20.3155 43.9835 29.6274 37.2047 34.1714 35.6545C34.1714 35.6545 34.6583 39.9153 36.1101 41.9516C45.036 35.5581 49.3037 33.9116 49.3037 33.9116C59.1989 34.8794 65.3133 38.7549 68.8047 41.6626L65.8923 44.1805C71.7127 45.9322 75.5945 51.0557 75.5945 51.0557C75.5945 51.2484 70.3574 51.9315 70.3574 51.9315C70.3574 51.9315 70.9407 58.0359 63.1772 61.9071C56.5979 65.1038 47.2642 61.132 38.3383 64.7141C44.1588 58.0316 48.137 54.9312 48.137 54.9312C49.4474 54.6602 50.778 54.4977 52.1153 54.4451C54.1548 54.4451 57.2559 54.9312 60.449 53.5693C62.0982 52.9869 63.9579 51.8177 65.3001 50.9418C65.3001 50.9418 61.2253 46.681 55.2119 45.8096C55.2119 45.8096 49.7774 47.2634 45.5097 50.4601C42.6981 47.6532 39.6892 47.8327 39.6892 47.8327C39.6892 47.8327 42.6017 50.6397 41.7288 53.8364C38.5807 56.7298 35.6006 59.8001 32.8029 63.0325C28.1448 60.405 17.8636 60.9962 15.7276 63.5186C18.3593 60.0153 22.3068 57.2214 25.2368 54.7998C25.5263 53.4423 28.9256 48.9888 29.3115 48.5027C27.1943 49.2976 25.2265 50.4435 23.4911 51.8921C22.4481 50.4795 20.935 49.4843 19.2233 49.0851C17.1838 50.8367 16.7013 53.4642 16.8943 53.9284C17.4062 54.6177 18.0694 55.181 18.833 55.5749L13.8854 61.0006L13.3985 57.0288C1.87603 73.4416 -4.4313 92.5256 3.62171 116.449ZM25.3552 81.0918V72.6665C28.2015 71.6545 30.8581 70.1744 33.2152 68.2874C41.3648 69.4478 51.1635 77.6849 51.1635 77.6849C51.1635 77.6849 47.7686 83.982 44.1763 90.8572C37.7725 91.5534 28.2677 83.6142 25.3552 81.0918ZM17.2057 96.3967C17.7671 93.9002 18.9774 91.5953 20.7147 89.7142L26.9869 89.8981C26.9869 89.8981 35.6232 97.163 40.7638 97.3426L36.3777 105.479C33.4652 104.896 28.5177 102.571 26.386 100.25C25.5239 103.338 25.1641 106.543 25.3201 109.744C22.4472 107.927 18.4689 103.473 17.2057 96.3967ZM14.574 68.502C16.4376 70.0296 18.3851 71.4521 20.4076 72.7628V81.1881C18.0786 83.7061 15.846 85.8387 14.1003 89.6135C10.8984 83.9995 11.6747 75.5742 14.5872 68.502H14.574Z" fill="#37013B"/>
</svg>
