<svg width="307" height="63" viewBox="0 0 307 63" fill="none" xmlns="http://www.w3.org/2000/svg">
<path d="M18.207 61.2734C21.4355 61.2734 24.2959 60.877 26.7881 60.084C29.2803 59.291 31.3854 58.1865 33.1035 56.7705C34.8216 55.3734 36.1243 53.7497 37.0117 51.8994C37.8991 50.0492 38.3428 48.0667 38.3428 45.9521C38.3428 44.404 38.069 43.0257 37.5215 41.8174C36.9928 40.609 36.0866 39.665 34.8027 38.9854C33.5189 38.2868 31.7536 37.9375 29.5068 37.9375H25.4854C25.1077 37.9375 24.7585 37.8997 24.4375 37.8242C24.1165 37.7298 23.9561 37.4749 23.9561 37.0596C23.9561 35.7757 24.2015 34.6335 24.6924 33.6328C25.2021 32.6322 25.929 31.8486 26.873 31.2822C27.8171 30.6969 28.9404 30.4043 30.2432 30.4043C30.9606 30.4043 31.7819 30.5176 32.707 30.7441C33.6322 30.9707 34.6139 31.3672 35.6523 31.9336L38.4277 24.1455C37.276 23.2959 35.9827 22.6445 34.5479 22.1914C33.1318 21.7383 31.6781 21.5117 30.1865 21.5117C28.0719 21.5117 26.1556 21.946 24.4375 22.8145C22.7194 23.6829 21.2467 24.863 20.0195 26.3545C18.8112 27.8271 17.8766 29.4886 17.2158 31.3389C16.5739 33.1891 16.2529 35.1055 16.2529 37.0879C16.2529 39.3535 16.555 41.1377 17.1592 42.4404C17.7822 43.7432 18.5752 44.7061 19.5381 45.3291C20.501 45.9333 21.5111 46.3203 22.5684 46.4902C23.6257 46.6413 24.598 46.7168 25.4854 46.7168H30.0732C30.3564 46.7168 30.5452 46.7546 30.6396 46.8301C30.7529 46.8867 30.8096 47.0189 30.8096 47.2266C30.8096 47.6608 30.5547 48.18 30.0449 48.7842C29.554 49.3883 28.7988 49.9831 27.7793 50.5684C26.7598 51.1536 25.457 51.6351 23.8711 52.0127C22.2852 52.4092 20.3971 52.6074 18.207 52.6074C15.6016 52.6074 13.5531 52.1637 12.0615 51.2764C10.57 50.389 9.5127 49.1995 8.88965 47.708C8.2666 46.2354 7.95508 44.6117 7.95508 42.8369C7.95508 41.1943 8.20052 39.4102 8.69141 37.4844C9.18229 35.5586 9.78646 33.5762 10.5039 31.5371L3.16895 28.7334C2.20605 31.1878 1.46973 33.6517 0.959961 36.125C0.450195 38.5794 0.195312 40.9583 0.195312 43.2617C0.195312 46.7168 0.84668 49.7943 2.14941 52.4941C3.45215 55.2129 5.43457 57.3558 8.09668 58.9229C10.7777 60.4899 14.1478 61.2734 18.207 61.2734ZM52.8145 13.2422L47.5469 18.5381L52.8145 23.8057L58.1104 18.5381L52.8145 13.2422ZM63.293 47H64.0859V38.2207H62.9814C61.7731 38.2207 60.8857 37.7959 60.3193 36.9463C59.7529 36.0967 59.3187 35.096 59.0166 33.9443L57.3457 27.4307L49.1895 30.0928C49.8125 31.943 50.4072 33.9821 50.9736 36.21C51.5589 38.4189 51.8516 40.3919 51.8516 42.1289C51.8516 44.7533 51.2946 46.849 50.1807 48.416C49.0667 50.002 47.4997 51.2386 45.4795 52.126C43.4782 53.0133 41.1465 53.7497 38.4844 54.335L41.5146 62.4912C44.7432 61.8682 47.5846 60.8392 50.0391 59.4043C52.5124 57.9883 54.5326 56.1663 56.0996 53.9385C57.6667 51.7106 58.7145 49.1146 59.2432 46.1504C59.7718 46.4336 60.3949 46.6507 61.1123 46.8018C61.8298 46.9339 62.5566 47 63.293 47ZM62.9531 38.2207V47H66.2666V38.2207H62.9531ZM76.9717 12.166L71.959 17.1504L76.9717 22.1914L81.9844 17.1504L76.9717 12.166ZM67.3428 12.166L62.3867 17.1504L67.3428 22.1914L72.4121 17.1504L67.3428 12.166ZM73.2617 27.0059C73.3561 28.0443 73.4316 29.1204 73.4883 30.2344C73.5449 31.3294 73.5732 32.4434 73.5732 33.5762C73.5732 35.4076 73.2051 36.6442 72.4688 37.2861C71.7324 37.9092 70.3542 38.2207 68.334 38.2207H65.6152V47H68.334C70.1087 47 71.7796 46.679 73.3467 46.0371C74.9137 45.3952 76.2731 44.5361 77.4248 43.46C78.029 44.1396 78.7275 44.7438 79.5205 45.2725C80.3324 45.8011 81.248 46.2259 82.2676 46.5469C83.2871 46.849 84.4105 47 85.6377 47H86.2891V38.2207H85.6943C84.7126 38.2207 83.9102 38.098 83.2871 37.8525C82.6829 37.6071 82.2298 37.2106 81.9277 36.6631C81.6257 36.0967 81.4463 35.3698 81.3896 34.4824L80.7949 26.0996L73.2617 27.0059ZM89.6309 47C92.5007 47 94.7474 46.4053 96.3711 45.2158C98.0137 44.0264 99.1748 42.4121 99.8545 40.373C100.534 38.334 100.874 36.0306 100.874 33.4629C100.874 31.8203 100.761 30.1022 100.534 28.3086C100.326 26.515 100.034 24.7025 99.6562 22.8711L91.7549 24.9102C92.0947 26.3828 92.4251 27.8932 92.7461 29.4414C93.0671 30.9896 93.2275 32.4056 93.2275 33.6895C93.2275 35.0111 92.9727 36.0967 92.4629 36.9463C91.9531 37.7959 91.028 38.2207 89.6875 38.2207H85.1562V47H89.6309ZM92.9443 9.39062L87.6768 14.6865L92.9443 19.9541L98.2402 14.6865L92.9443 9.39062ZM106.878 7.15332V33.6328C106.878 38.0697 107.86 41.4115 109.823 43.6582C111.787 45.8861 114.94 47 119.282 47H119.99V38.2207H119.282C117.47 38.2207 116.309 37.7959 115.799 36.9463C115.308 36.0778 115.062 34.6995 115.062 32.8115V7.15332H106.878ZM131.771 0.101562L126.504 5.39746L131.771 10.665L137.067 5.39746L131.771 0.101562ZM132.479 28.3369C131.573 28.3369 130.771 28.2236 130.072 27.9971C129.393 27.7705 129.053 27.1852 129.053 26.2412C129.053 25.5426 129.185 24.8818 129.449 24.2588C129.732 23.6357 130.129 23.126 130.639 22.7295C131.167 22.333 131.781 22.1348 132.479 22.1348C133.084 22.1348 133.612 22.3236 134.065 22.7012C134.537 23.0599 134.943 23.5319 135.283 24.1172C135.642 24.7025 135.925 25.335 136.133 26.0146C136.359 26.6943 136.529 27.3363 136.643 27.9404C135.982 28.0726 135.293 28.1764 134.575 28.252C133.877 28.3086 133.178 28.3369 132.479 28.3369ZM129.619 38.2207H118.857V47H129.279C131.904 47 134.169 46.7829 136.076 46.3486C138.002 45.9144 139.588 45.1592 140.834 44.083C142.099 42.988 143.034 41.4775 143.638 39.5518C144.261 37.626 144.572 35.181 144.572 32.2168C144.572 29.9512 144.346 27.7233 143.893 25.5332C143.439 23.3242 142.731 21.3324 141.769 19.5576C140.825 17.7829 139.588 16.3669 138.059 15.3096C136.529 14.2334 134.688 13.6953 132.536 13.6953C130.346 13.6953 128.43 14.3372 126.787 15.6211C125.145 16.9049 123.87 18.5381 122.964 20.5205C122.076 22.5029 121.633 24.5326 121.633 26.6094C121.633 29.8379 122.633 32.1602 124.635 33.5762C126.655 34.9733 129.345 35.6719 132.706 35.6719C133.386 35.6719 134.084 35.6436 134.802 35.5869C135.519 35.5303 136.189 35.4548 136.812 35.3604C136.794 36.1911 136.492 36.8141 135.906 37.2295C135.34 37.626 134.528 37.8903 133.471 38.0225C132.413 38.1546 131.13 38.2207 129.619 38.2207ZM196.342 42.0156V7.15332H188.157V42.5254C188.157 44.4889 187.94 46.207 187.506 47.6797C187.09 49.1712 186.307 50.3229 185.155 51.1348C184.022 51.9655 182.389 52.3809 180.256 52.3809C178.179 52.3809 176.451 52.0505 175.073 51.3896C173.695 50.7288 172.657 49.7565 171.958 48.4727C171.278 47.1888 170.938 45.6312 170.938 43.7998C170.938 42.1195 171.203 40.2786 171.731 38.2773C172.279 36.2572 172.874 34.4069 173.516 32.7266L166.181 29.9229C165.274 32.113 164.557 34.4163 164.028 36.833C163.5 39.2497 163.235 41.5719 163.235 43.7998C163.235 47.4626 163.877 50.5778 165.161 53.1455C166.445 55.7132 168.352 57.6673 170.882 59.0078C173.412 60.3672 176.536 61.0469 180.256 61.0469C184.107 61.0469 187.213 60.2917 189.573 58.7812C191.933 57.2708 193.651 55.0902 194.728 52.2393C195.804 49.4072 196.342 45.9993 196.342 42.0156ZM203.903 7.15332V33.6328C203.903 38.0697 204.885 41.4115 206.849 43.6582C208.812 45.8861 211.965 47 216.308 47H217.016V38.2207H216.308C214.495 38.2207 213.334 37.7959 212.824 36.9463C212.333 36.0778 212.088 34.6995 212.088 32.8115V7.15332H203.903ZM215.854 38.2207V47H217.214V38.2207H215.854ZM221.688 50.1436L216.421 55.4395L221.688 60.707L226.984 55.4395L221.688 50.1436ZM224.096 27.0059C224.19 28.0443 224.266 29.1204 224.322 30.2344C224.379 31.3294 224.407 32.4434 224.407 33.5762C224.407 35.4076 224.039 36.6442 223.303 37.2861C222.566 37.9092 221.188 38.2207 219.168 38.2207H216.449V47H219.168C220.943 47 222.614 46.679 224.181 46.0371C225.748 45.3952 227.107 44.5361 228.259 43.46C228.863 44.1396 229.562 44.7438 230.354 45.2725C231.166 45.8011 232.082 46.2259 233.102 46.5469C234.121 46.849 235.244 47 236.472 47H237.123V38.2207H236.528C235.547 38.2207 234.744 38.098 234.121 37.8525C233.517 37.6071 233.064 37.2106 232.762 36.6631C232.46 36.0967 232.28 35.3698 232.224 34.4824L231.629 26.0996L224.096 27.0059ZM235.99 38.2207V47H238.001V38.2207H235.99ZM248.564 9.70215L243.552 14.6865L248.564 19.7275L253.577 14.6865L248.564 9.70215ZM238.936 9.70215L233.979 14.6865L238.936 19.7275L244.005 14.6865L238.936 9.70215ZM241.711 47C244.581 47 246.827 46.4053 248.451 45.2158C250.094 44.0264 251.255 42.4121 251.935 40.373C252.614 38.334 252.954 36.0306 252.954 33.4629C252.954 31.8203 252.841 30.1022 252.614 28.3086C252.407 26.515 252.114 24.7025 251.736 22.8711L243.835 24.9102C244.175 26.3828 244.505 27.8932 244.826 29.4414C245.147 30.9896 245.308 32.4056 245.308 33.6895C245.308 35.0111 245.053 36.0967 244.543 36.9463C244.033 37.7959 243.108 38.2207 241.768 38.2207H237.236V47H241.711ZM268.417 23.041C266.529 23.041 264.886 23.4753 263.489 24.3438C262.111 25.2122 260.969 26.3356 260.062 27.7139C259.175 29.0921 258.514 30.5648 258.08 32.1318C257.646 33.6989 257.429 35.181 257.429 36.5781C257.429 40.2786 258.448 42.9408 260.487 44.5645C262.545 46.1882 265.5 47 269.352 47H271.646C271.174 48.1328 270.22 49.1712 268.785 50.1152C267.35 51.0592 265.613 51.8805 263.574 52.5791C261.554 53.2965 259.402 53.8818 257.117 54.335L260.147 62.4912C263.716 61.7926 266.812 60.8014 269.437 59.5176C272.08 58.2526 274.26 56.6006 275.979 54.5615C277.697 52.5225 278.943 50.002 279.717 47H282.152V38.2207H280.283C280.113 36.3138 279.745 34.4541 279.179 32.6416C278.612 30.8291 277.838 29.2054 276.856 27.7705C275.894 26.3167 274.704 25.165 273.288 24.3154C271.891 23.4658 270.267 23.041 268.417 23.041ZM269.352 38.2207C268.143 38.2207 267.124 38.1263 266.293 37.9375C265.462 37.7487 265.047 37.1823 265.047 36.2383C265.047 35.6341 265.151 34.9827 265.358 34.2842C265.566 33.5667 265.915 32.9531 266.406 32.4434C266.897 31.9336 267.549 31.6787 268.36 31.6787C269.116 31.6787 269.748 31.9053 270.258 32.3584C270.786 32.7926 271.211 33.359 271.532 34.0576C271.872 34.7562 272.136 35.4736 272.325 36.21C272.514 36.9463 272.646 37.6165 272.722 38.2207H269.352ZM293.934 0.101562L288.666 5.39746L293.934 10.665L299.229 5.39746L293.934 0.101562ZM294.642 28.3369C293.735 28.3369 292.933 28.2236 292.234 27.9971C291.555 27.7705 291.215 27.1852 291.215 26.2412C291.215 25.5426 291.347 24.8818 291.611 24.2588C291.895 23.6357 292.291 23.126 292.801 22.7295C293.329 22.333 293.943 22.1348 294.642 22.1348C295.246 22.1348 295.774 22.3236 296.228 22.7012C296.7 23.0599 297.105 23.5319 297.445 24.1172C297.804 24.7025 298.087 25.335 298.295 26.0146C298.521 26.6943 298.691 27.3363 298.805 27.9404C298.144 28.0726 297.455 28.1764 296.737 28.252C296.039 28.3086 295.34 28.3369 294.642 28.3369ZM291.781 38.2207H281.02V47H291.441C294.066 47 296.331 46.7829 298.238 46.3486C300.164 45.9144 301.75 45.1592 302.996 44.083C304.261 42.988 305.196 41.4775 305.8 39.5518C306.423 37.626 306.734 35.181 306.734 32.2168C306.734 29.9512 306.508 27.7233 306.055 25.5332C305.602 23.3242 304.894 21.3324 303.931 19.5576C302.987 17.7829 301.75 16.3669 300.221 15.3096C298.691 14.2334 296.851 13.6953 294.698 13.6953C292.508 13.6953 290.592 14.3372 288.949 15.6211C287.307 16.9049 286.032 18.5381 285.126 20.5205C284.239 22.5029 283.795 24.5326 283.795 26.6094C283.795 29.8379 284.796 32.1602 286.797 33.5762C288.817 34.9733 291.507 35.6719 294.868 35.6719C295.548 35.6719 296.246 35.6436 296.964 35.5869C297.681 35.5303 298.352 35.4548 298.975 35.3604C298.956 36.1911 298.654 36.8141 298.068 37.2295C297.502 37.626 296.69 37.8903 295.633 38.0225C294.576 38.1546 293.292 38.2207 291.781 38.2207Z" fill="#37013B"/>
</svg>
