<svg width="48" height="48" viewBox="0 0 48 48" fill="none" xmlns="http://www.w3.org/2000/svg">
<path d="M29.7 7.9V15.5H26.7V7.9C26.7 7.36 26.22 7.1 25.9 7.1C25.8 7.1 25.7 7.12 25.6 7.16L9.74 13.14C8.68 13.54 8 14.54 8 15.68V17.02C6.18 18.38 5 20.56 5 23.02V15.68C5 13.3 6.46 11.18 8.68 10.34L24.56 4.34C25 4.18 25.46 4.1 25.9 4.1C27.9 4.1 29.7 5.72 29.7 7.9Z" fill="#3D195B"/>
<path d="M43 29V31C43 31.54 42.58 31.98 42.02 32H39.1C38.04 32 37.08 31.22 37 30.18C36.94 29.56 37.18 28.98 37.58 28.58C37.94 28.2 38.44 28 38.98 28H42C42.58 28.02 43 28.46 43 29Z" fill="#3D195B"/>
<path d="M38.96 25.9H41C42.1 25.9 43 25 43 23.9V23.02C43 18.88 39.62 15.5 35.48 15.5H12.52C10.82 15.5 9.26 16.06 8 17.02C6.18 18.38 5 20.56 5 23.02V36.48C5 40.62 8.38 44 12.52 44H35.48C39.62 44 43 40.62 43 36.48V36.1C43 35 42.1 34.1 41 34.1H39.26C37.34 34.1 35.5 32.92 35 31.06C34.58 29.54 35.08 28.08 36.08 27.1C36.82 26.34 37.84 25.9 38.96 25.9ZM28 25.5H14C13.18 25.5 12.5 24.82 12.5 24C12.5 23.18 13.18 22.5 14 22.5H28C28.82 22.5 29.5 23.18 29.5 24C29.5 24.82 28.82 25.5 28 25.5Z" fill="#3D195B"/>
</svg>
