<svg preserveAspectRatio="none" width="869" height="768" viewBox="0 0 869 768" fill="none"
     xmlns="http://www.w3.org/2000/svg">
    <path d="M1.15051e-05 0.00012207L6.10352e-05 1133.11L869 1133.11L869 8.40851e-05L1.15051e-05 0.00012207Z"
          fill="#29CB75"/>
    <path d="M39.0001 1133L830 1133L830 20L39 20L39.0001 1133ZM352.55 1126.34L352.55 1062.35L516.451 1062.35L516.451 1126.34L352.55 1126.34ZM522.151 1057.02L346.849 1057.02L346.849 1126.34L222.854 1126.34L222.854 921.063L646.146 921.063L646.146 1126.34L522.151 1126.34L522.151 1057.02ZM651.847 1126.34L651.847 915.732L543.672 915.732C531.287 899.475 514.903 886.241 495.903 877.148C476.903 868.054 455.843 863.367 434.5 863.481C413.157 863.367 392.097 868.054 373.097 877.148C354.097 886.241 337.713 899.475 325.328 915.732L217.153 915.732L217.153 1126.34L83.0396 1126.34C82.2825 1117.35 78.1692 1108.9 71.4203 1102.47C64.6714 1096.03 55.7172 1092.03 46.1262 1091.15L46.1262 579.832L299.816 579.832C301.812 646.479 361.386 702.462 434.5 702.462C507.614 702.462 567.189 646.479 569.184 579.832L822.874 579.832L822.874 1091.15C813.283 1092.03 804.329 1096.03 797.58 1102.47C790.831 1108.9 786.718 1117.35 785.961 1126.34L651.847 1126.34ZM334.164 915.732C358.251 886.407 395.306 870.145 434.5 870.145C473.694 870.145 510.75 886.407 534.836 915.732L334.164 915.732ZM424.381 579.832C425.949 582.498 429.797 586.497 434.5 586.497C439.203 586.497 443.051 582.498 444.619 579.832L562.058 579.832C560.062 643.813 503.624 695.798 434.5 695.798C365.377 695.798 308.938 643.813 306.942 579.832L424.381 579.832ZM444.619 573.168C443.9 571.192 442.538 569.476 440.723 568.26C438.908 567.045 436.732 566.392 434.5 566.392C432.268 566.392 430.092 567.045 428.277 568.26C426.463 569.476 425.1 571.192 424.381 573.168L306.942 573.168C306.942 541.528 320.382 511.184 344.303 488.812C368.225 466.439 400.67 453.87 434.5 453.87C468.331 453.87 500.775 466.439 524.697 488.812C548.619 511.184 562.058 541.528 562.058 573.168L444.619 573.168ZM569.184 573.168C569.184 539.76 554.994 507.721 529.736 484.099C504.478 460.476 470.22 447.205 434.5 447.205C398.78 447.205 364.522 460.476 339.264 484.099C314.006 507.721 299.816 539.76 299.816 573.168L46.1262 573.168L46.1262 60.5212C65.6518 58.9218 81.3292 43.9928 83.0395 26.6647L217.153 26.6647L217.153 235.935L325.328 235.935C337.791 252.12 354.19 265.301 373.172 274.393C392.153 283.484 413.174 288.225 434.5 288.225C455.826 288.225 476.847 283.484 495.828 274.393C514.81 265.301 531.209 252.12 543.672 235.935L651.847 235.935L651.847 26.6646L785.961 26.6646C787.671 43.9928 803.348 58.9217 822.874 60.5212L822.874 573.168L569.184 573.168ZM516.451 26.6647L516.451 89.3126L352.55 89.3126L352.55 26.6647L516.451 26.6647ZM346.849 94.6443L522.151 94.6443L522.151 26.6647L646.146 26.6646L646.146 230.604L222.854 230.604L222.854 26.6647L346.849 26.6647L346.849 94.6443ZM534.836 235.935C510.75 265.26 473.694 281.522 434.5 281.522C395.306 281.522 358.251 265.26 334.164 235.935L534.836 235.935ZM75.9134 26.6647C74.2031 39.994 61.8037 52.2571 46.1262 53.8566L46.1262 26.6647L75.9134 26.6647ZM46.1262 1097.81C61.8037 1099.41 74.2032 1111.67 75.9134 1126.34L46.1262 1126.34L46.1262 1097.81ZM793.087 1126.34C794.797 1111.67 807.197 1099.41 822.874 1097.81L822.874 1126.34L793.087 1126.34ZM822.874 53.8565C807.197 52.257 794.797 39.994 793.087 26.6646L822.874 26.6646L822.874 53.8565ZM434.5 981.712C432.61 981.712 430.798 981.01 429.461 979.76C428.125 978.51 427.374 976.815 427.374 975.047C427.374 973.28 428.125 971.585 429.461 970.335C430.798 969.085 432.61 968.383 434.5 968.383C436.39 968.383 438.203 969.085 439.539 970.335C440.875 971.585 441.626 973.28 441.626 975.047C441.626 976.815 440.875 978.51 439.539 979.76C438.203 981.01 436.39 981.712 434.5 981.712ZM434.5 169.955C435.91 169.955 437.287 170.346 438.459 171.078C439.631 171.811 440.544 172.851 441.084 174.069C441.623 175.287 441.764 176.627 441.489 177.92C441.214 179.213 440.536 180.4 439.539 181.332C438.542 182.264 437.273 182.899 435.89 183.156C434.508 183.413 433.075 183.281 431.773 182.777C430.471 182.273 429.358 181.418 428.575 180.322C427.792 179.226 427.374 177.938 427.374 176.62C427.374 174.852 428.125 173.157 429.461 171.907C430.798 170.657 432.61 169.955 434.5 169.955Z"
          fill="white"/>
    <g opacity="0.2">
        <path d="M48 626.361L48 742.19L822 742.19L822 626.361L48 626.361Z" fill="white"/>
        <path d="M48 394.702L48 510.531L822 510.531L822 394.702L48 394.702Z" fill="white"/>
        <path d="M48 161.784L48 277.613L822 277.613L822 161.784L48 161.784Z" fill="white"/>
    </g>
</svg>
