<svg width="132" height="57" viewBox="0 0 132 57" fill="none" xmlns="http://www.w3.org/2000/svg">
<path d="M101.621 37.4554L101.984 35.9008H104.927V47.6063C104.927 49.8924 104.294 51.4926 102.8 52.6812C101.668 53.55 100.128 54.1895 98.2726 54.1895C95.737 54.1895 93.9262 53.3207 92.4779 51.9035L94.3344 49.2971C95.2398 50.1659 96.4618 50.9435 98.0462 50.9435C100.536 50.9435 101.622 49.7087 101.622 47.8799V47.0111C100.627 48.0629 99.4501 48.4739 98.1372 48.4739C94.6962 48.4739 91.9801 45.6388 91.9801 42.0274C91.9801 38.4603 94.7871 35.7178 98.2274 35.7178C99.6307 35.7184 100.898 36.4036 101.621 37.4554ZM98.635 38.7821C96.87 38.7821 95.4655 40.153 95.4655 42.0274C95.4655 43.8106 96.87 45.2278 98.635 45.2278C100.4 45.2278 101.803 43.8106 101.803 42.0274C101.803 40.153 100.4 38.7821 98.635 38.7821ZM79.4853 18.4353C78.0814 18.4353 76.9039 19.2585 76.6331 20.5845H82.2459C81.9751 19.3041 80.844 18.4353 79.4853 18.4353ZM79.6665 28.357C75.9095 28.357 73.1476 25.7512 73.1476 21.9561C73.1476 18.5265 75.6374 15.4635 79.5762 15.4635C82.5187 15.4635 85.5521 17.7032 85.5521 21.8643C85.5521 22.1841 85.5521 22.5963 85.4618 23.0529H76.5886C76.9046 24.4245 78.1279 25.3402 79.6213 25.3402C80.9794 25.3402 82.0209 24.8368 82.8811 23.9217L84.9182 26.0247C83.6059 27.5337 81.7042 28.357 79.6665 28.357ZM117.286 18.4353C115.882 18.4353 114.706 19.2585 114.433 20.5845H120.047C119.776 19.3041 118.644 18.4353 117.286 18.4353ZM117.467 28.357C113.711 28.357 110.949 25.7512 110.949 21.9561C110.949 18.5265 113.438 15.4635 117.377 15.4635C120.32 15.4635 123.353 17.7032 123.353 21.8643C123.353 22.1841 123.353 22.5963 123.263 23.0529H114.389C114.707 24.4245 115.929 25.3402 117.422 25.3402C118.78 25.3402 119.821 24.8368 120.682 23.9217L122.719 26.0247C121.406 27.5337 119.504 28.357 117.467 28.357ZM125.933 38.5528C124.529 38.5528 123.352 39.376 123.081 40.7021H128.694C128.422 39.4216 127.291 38.5528 125.933 38.5528ZM126.114 48.4739C122.355 48.4739 119.595 45.8681 119.595 42.073C119.595 38.6434 122.085 35.5804 126.023 35.5804C128.966 35.5804 132 37.8201 132 41.9812C132 42.301 132 42.7132 131.908 43.1698H123.036C123.352 44.5414 124.575 45.4558 126.069 45.4558C127.427 45.4558 128.468 44.953 129.328 44.0386L131.365 46.1416C130.052 47.6513 128.151 48.4739 126.114 48.4739ZM70.4308 38.5528C69.027 38.5528 67.8507 39.376 67.5786 40.7021H73.1921C72.9213 39.4216 71.7895 38.5528 70.4308 38.5528ZM70.612 48.4739C66.8551 48.4739 64.0931 45.8681 64.0931 42.073C64.0931 38.6434 66.5823 35.5804 70.5205 35.5804C73.4636 35.5804 76.497 37.8201 76.497 41.9812C76.497 42.301 76.497 42.7132 76.4067 43.1698H67.5328C67.8501 44.5414 69.0734 45.4558 70.5669 45.4558C71.9243 45.4558 72.9651 44.953 73.8266 44.0386L75.8631 46.1416C74.5508 47.6513 72.6498 48.4739 70.612 48.4739ZM52.0066 48.1541V30.0028H55.5823V44.7251H63.369V48.1541H52.0066ZM65.6324 28.0372V15.7832H68.5298L68.8928 17.5665C69.4352 16.4228 70.5211 15.6465 71.9707 15.6465C72.2874 15.6465 72.604 15.6914 72.9213 15.7832V19.0293C72.5131 18.9381 72.1526 18.8918 71.7444 18.8918C70.1148 18.8918 68.9831 19.8981 68.9831 21.8636V28.0365L65.6324 28.0372ZM124.665 28.0372V15.7832H127.562L127.924 17.5665C128.468 16.4228 129.554 15.6465 131.003 15.6465C131.32 15.6465 131.636 15.6914 131.954 15.7832V19.0293C131.546 18.9381 131.185 18.8918 130.777 18.8918C129.147 18.8918 128.016 19.8981 128.016 21.8636V28.0365L124.665 28.0372ZM101.26 20.8125C101.26 19.4865 100.536 18.6632 99.4037 18.6632C98.0914 18.6632 97.4124 19.4865 97.4124 20.8587V28.0365H94.0623V20.8125C94.0623 19.4865 93.3381 18.6632 92.2064 18.6632C90.8935 18.6632 90.2144 19.4865 90.2144 20.8587V28.0365H86.8644V15.7832H89.8069L90.1699 17.3835C90.1699 17.3835 90.8941 15.4635 93.1576 15.4635C94.5621 15.4635 95.7383 16.0574 96.5534 17.2929L96.6443 17.4297L96.7353 17.2929C97.9128 15.6009 99.3611 15.4635 100.266 15.4635C102.847 15.4635 104.612 17.4297 104.612 20.2185V28.0372H101.262V20.8125H101.26ZM108.005 14.1381C106.829 14.1381 105.923 13.223 105.923 12.08C105.923 10.8914 106.829 9.97704 108.005 9.97704C109.182 9.97704 110.088 10.8908 110.088 12.08C110.088 13.2224 109.182 14.1381 108.005 14.1381ZM106.286 15.7832H109.635V28.0359H106.286V15.7832ZM84.3288 38.7821C82.5174 38.7821 81.1606 40.153 81.1606 42.0274C81.1606 43.8106 82.5174 45.2278 84.3288 45.2278C86.0944 45.2278 87.4525 43.8106 87.4525 42.0274C87.4525 40.153 86.0944 38.7821 84.3288 38.7821ZM83.6498 48.4739C80.4358 48.4739 77.6294 45.502 77.6294 42.0274C77.6294 38.5984 80.4358 35.7178 83.6498 35.7178C85.4612 35.7178 86.6825 36.3573 87.4074 37.5003L87.7698 35.9001H90.7123V48.1534H87.7698L87.4074 46.5982C86.6825 47.6969 85.3251 48.4739 83.6498 48.4739ZM112.487 48.4739C109.816 48.4739 106.558 47.0111 106.558 42.439V35.9001H109.906V42.2098C109.906 44.3128 110.858 45.2272 112.487 45.2272C113.981 45.2272 115.068 44.176 115.068 42.2098V35.9001H118.418V42.439C118.418 47.0111 115.113 48.4739 112.487 48.4739ZM55.5823 18.4815H57.6652C59.4766 18.4815 60.7889 17.4759 60.7889 15.6465C60.7889 13.8164 59.4766 12.857 57.6652 12.857H55.5823V18.4815ZM52.0066 28.0372V9.428H57.8458C61.6485 9.428 64.5007 11.714 64.5007 15.6465C64.5007 19.6239 61.6936 21.9561 57.8458 21.9561H55.5823V28.0372H52.0066ZM39.1975 25.6911C37.9822 26.6969 36.9519 27.2575 36.9519 27.2575L36.966 30.4458C37.8348 31.4009 38.6918 32.1922 39.3333 33.6341C40.551 31.4747 40.3168 28.3003 39.1975 25.6911ZM38.2094 36.128C38.2094 36.128 37.9612 34.813 36.9051 33.5857L34.4957 33.6434C34.4957 33.6434 31.2479 36.3934 29.267 36.458C29.267 36.458 30.3581 38.4581 30.9107 39.5032C31.9996 39.2679 33.9173 38.4212 34.69 37.5353C34.69 37.5353 35.2005 39.1572 35.1045 41.072C36.1886 40.4537 37.6825 38.7741 38.2094 36.128ZM35.1045 30.3697L35.1 27.1929C35.1 27.1929 33.6599 26.7384 32.1238 25.5642C29.0377 26.0233 25.3006 29.0824 25.3006 29.0824C25.3006 29.0824 26.5626 31.4425 27.9442 33.9894C30.3724 34.324 33.9501 31.3017 35.1045 30.3697ZM43.3351 43.5982L41.3495 41.4319C40.7829 47.2872 37.8723 52.2587 32.5265 55.7262L31.7093 52.5679C27.1714 55.7978 19.3834 57.8925 12.6935 54.1643C13.5247 49.9886 14.2624 45.7575 12.6795 40.6913C8.97514 46.3436 5.69694 48.5583 5.69694 48.5583C3.19379 44.4172 3.41865 36.1096 4.16559 33.6641L0 34.9353C0 32.1438 2.03949 26.2217 4.99456 22.895L2.39307 22.4843H2.39049C4.15837 18.9245 6.79733 15.8562 10.0263 13.5515L10.0308 13.5489C9.06143 15.0576 9.04737 18.7812 11.8877 20.1977C10.6818 18.1145 10.5366 15.5399 11.7964 14.2064C13.0561 12.8615 15.1753 13.3228 16.5286 14.3656C16.1259 13.2029 14.9458 11.7402 13.1779 11.641H13.1754C16.5144 9.94767 20.3054 8.99483 24.3165 8.99483C25.0658 8.99483 25.8127 9.02714 26.5433 9.09175C27.7094 9.55312 29.421 11.1726 30.2195 12.1808C30.2195 12.1808 30.2757 10.9927 29.606 9.55774C33.9496 10.6005 36.0219 12.3423 36.8906 13.1821C37.0686 15.0323 37.6305 16.142 38.3728 17.9C36.9656 16.3473 33.4298 13.8418 31.7415 13.242C31.7415 13.242 31.6034 14.8455 31.0227 15.6159C27.6602 13.2259 26.0094 12.6238 26.0094 12.6238C22.3191 13.1451 19.9448 14.5478 18.6545 15.6506L19.7785 16.5942C17.554 17.2678 16.1093 19.1503 16.1093 19.1503C16.1257 19.185 18.0972 19.4618 18.0972 19.4618C18.0972 19.4618 17.8959 21.7434 20.7947 23.1738C23.2791 24.3988 26.85 22.8785 30.2125 24.2074C28.0021 21.6927 26.473 20.5691 26.473 20.5691C26.473 20.5691 25.595 20.3892 24.9767 20.3938C24.2041 20.3984 23.052 20.5484 21.7899 20.0639C21.1858 19.8309 20.481 19.4203 19.9284 19.0788C19.9284 19.0788 21.4808 17.5077 23.7498 17.1617C23.7498 17.1617 25.7963 17.7292 27.4167 18.9104C28.4938 17.8769 29.6177 17.9092 29.6177 17.9092C29.6177 17.9092 28.5031 18.9335 28.8403 20.1747C30.4584 21.5958 32.2145 23.6306 32.2145 23.6306C34.0035 22.6662 37.8928 22.8877 38.6913 23.8013C37.6797 22.507 36.2209 21.4273 35.0923 20.5045C34.9541 20.0201 33.7225 18.3313 33.5141 18.1745C33.5141 18.1745 34.6849 18.5298 35.7316 19.4549C36.0313 19.0327 36.5932 18.6036 37.3589 18.4144C38.1456 19.065 38.2862 20.0639 38.2651 20.23C37.9115 20.6476 37.5602 20.8183 37.5602 20.8183L39.457 22.8415L39.6466 21.3905C44.016 27.5387 46.3979 34.6538 43.3351 43.5982ZM8.82941 4.68789C11.3489 5.82522 12.9669 7.2602 13.262 7.47936C13.1285 6.83804 12.6321 3.75121 12.3465 1.83408C13.8146 2.83765 17.2216 5.16775 18.3432 5.92442C18.7998 4.53789 20.3827 0.00924825 20.3827 0.00924825C20.3827 0.00924825 23.2441 4.57254 23.7334 5.31305C24.3306 4.69713 27.7492 0.948141 28.6344 0C28.7818 2.15706 28.9832 5.24154 29.0348 5.70526C29.2057 5.47685 30.5146 3.66817 32.7087 2.00251C31.758 3.84812 31.3037 6.3951 31.1023 8.44137C28.9435 7.84851 26.665 7.53016 24.3188 7.53016C19.8113 7.53016 15.5778 8.69746 11.918 10.7484C11.253 8.77131 10.211 6.312 8.82941 4.68789Z" fill="white"/>
</svg>
