<svg width="20" height="20" viewBox="0 0 20 20" fill="none" xmlns="http://www.w3.org/2000/svg">
    <path d="M9.59963 4.74111L9.99999 5.27624L10.4003 4.74111C11.1521 3.73632 12.3566 3.08325 13.7 3.08325C15.9798 3.08325 17.8333 4.94039 17.8333 7.24159C17.8333 8.17887 17.6838 9.04367 17.4243 9.846L17.4232 9.84926C16.8007 11.8193 15.5239 13.41 14.1418 14.5978C12.7575 15.7875 11.2962 16.5482 10.3556 16.8682L10.3556 16.8682L10.3502 16.8701C10.2787 16.8953 10.1517 16.9166 9.99999 16.9166C9.84824 16.9166 9.72124 16.8953 9.64973 16.8701L9.64974 16.8701L9.64438 16.8682C8.70375 16.5482 7.24249 15.7875 5.85818 14.5978C4.47606 13.41 3.19928 11.8193 2.57675 9.84926L2.57676 9.84926L2.57571 9.84601C2.31613 9.04367 2.16666 8.17887 2.16666 7.24159C2.16666 4.94039 4.02013 3.08325 6.29999 3.08325C7.64342 3.08325 8.8479 3.73632 9.59963 4.74111Z"
          fill="#FBFBFB" stroke="#858585"/>
</svg>
