<svg width="14" height="14" viewBox="0 0 14 14" fill="none" xmlns="http://www.w3.org/2000/svg">
<path d="M5.84123 1.29079L4.66623 3.64079C4.50789 3.96579 4.08289 4.27412 3.72456 4.34079L1.59956 4.69079C0.241227 4.91579 -0.0754395 5.89912 0.899561 6.88246L2.55789 8.54079C2.83289 8.81579 2.99123 9.35746 2.89956 9.74912L2.42456 11.7991C2.04956 13.4158 2.91623 14.0491 4.34123 13.1991L6.33289 12.0158C6.69123 11.7991 7.29123 11.7991 7.64956 12.0158L9.64123 13.1991C11.0662 14.0408 11.9329 13.4158 11.5579 11.7991L11.0829 9.74912C11.0079 9.34912 11.1662 8.80746 11.4412 8.53246L13.0996 6.87412C14.0746 5.89912 13.7579 4.91579 12.3996 4.68246L10.2746 4.33246C9.91623 4.27412 9.49123 3.95746 9.33289 3.63246L8.15789 1.28246C7.51623 0.0157902 6.48289 0.0157904 5.84123 1.29079Z" fill="#3D195B"/>
</svg>
